<?xml version="1.0" standalone="no"?>
<!DOCTYPE svg PUBLIC "-//W3C//DTD SVG 20010904//EN"
 "http://www.w3.org/TR/2001/REC-SVG-20010904/DTD/svg10.dtd">
<svg version="1.0" xmlns="http://www.w3.org/2000/svg"
 width="512.000000pt" height="512.000000pt" viewBox="0 0 512.000000 512.000000"
 preserveAspectRatio="xMidYMid meet">
<metadata>
Created by potrace 1.16, written by Peter Selinger 2001-2019
</metadata>
<g transform="translate(0.000000,512.000000) scale(0.100000,-0.100000)"
fill="#000000" stroke="none">
<path d="M0 5060 l0 -60 83 0 c45 0 145 9 222 21 77 11 273 38 435 59 l295 38
-170 1 c-167 0 -250 -8 -557 -55 -109 -16 -151 -15 -119 5 7 5 62 17 122 26
60 10 109 19 109 21 0 2 -94 4 -210 4 l-210 0 0 -60z"/>
<path d="M1328 4958 c1 -90 3 -232 5 -316 2 -149 1 -153 -18 -148 -11 4 -101
17 -200 31 -99 14 -190 28 -202 30 -21 5 -22 8 -20 173 l2 167 -46 23 c-37 18
-78 25 -225 37 -185 15 -496 20 -578 9 -27 -4 -46 -12 -46 -19 0 -9 34 -15
117 -20 179 -10 451 -43 481 -57 38 -18 60 -71 73 -169 10 -77 5 -289 -7 -332
-5 -16 -18 -17 -157 -11 -165 7 -273 -3 -419 -38 -84 -20 -113 -37 -65 -39
l22 0 -22 -11 c-14 -7 -23 -20 -23 -33 0 -22 1 -22 58 -9 120 28 510 46 580
28 53 -15 13 -23 -113 -23 -138 -1 -239 -10 -400 -37 -116 -19 -125 -22 -125
-41 0 -13 7 -14 37 -9 172 30 321 48 451 53 142 6 154 5 167 -13 8 -10 15 -22
15 -25 0 -4 -46 -10 -102 -13 -124 -9 -286 -30 -428 -57 -134 -25 -140 -27
-140 -45 0 -10 6 -13 18 -10 134 40 489 86 663 86 l49 0 0 -75 c0 -45 6 -90
15 -111 l15 -36 -33 6 c-70 14 -501 17 -612 4 l-110 -13 -3 -29 -4 -29 54 7
c161 22 221 26 403 32 179 5 226 2 454 -24 234 -27 256 -31 273 -52 21 -26 23
-40 5 -64 -12 -16 -18 -16 -127 3 -351 62 -456 73 -655 68 -116 -2 -232 -11
-297 -22 l-108 -19 0 -38 c0 -45 -11 -44 185 -23 77 8 233 15 347 15 195 0
208 -1 218 -19 5 -11 10 -22 10 -24 0 -2 -136 -7 -302 -10 -167 -4 -338 -10
-380 -13 -73 -6 -78 -8 -78 -30 0 -13 3 -24 8 -24 4 0 61 7 127 16 134 17 693
30 712 17 9 -6 9 -19 1 -51 l-10 -42 -87 -1 c-76 -1 -81 -2 -41 -10 25 -4 64
-8 88 -8 l42 -1 0 -53 0 -54 -137 -6 c-75 -4 -247 -7 -382 -7 -135 0 -263 -3
-284 -6 -33 -6 -37 -10 -37 -36 0 -29 1 -30 35 -24 159 30 344 46 535 46 250
0 300 -5 300 -31 0 -11 -4 -19 -9 -19 -51 0 -362 -26 -544 -46 -125 -13 -248
-24 -272 -24 -45 0 -45 0 -45 -35 0 -42 -15 -41 200 -15 91 11 284 25 430 31
258 10 723 9 734 -1 3 -3 2 -16 -1 -29 l-6 -24 -206 5 c-350 9 -759 -16 -841
-52 -21 -9 -16 -10 26 -5 154 16 383 25 654 24 362 -1 438 -8 356 -33 -33 -11
-46 -130 -23 -207 l14 -45 -291 4 c-201 3 -369 -1 -546 -13 -140 -9 -310 -19
-378 -22 -110 -5 -122 -7 -122 -24 0 -17 9 -19 83 -20 l82 -1 -80 -17 c-69
-14 -80 -20 -83 -39 -2 -12 1 -22 6 -22 4 0 85 18 178 40 330 78 573 99 978
85 214 -7 218 -8 228 -30 6 -13 8 -35 4 -49 -6 -25 -8 -26 -64 -19 -31 5 -185
8 -342 7 -304 0 -444 -12 -707 -59 -76 -14 -171 -31 -210 -37 l-73 -13 0 -71
0 -72 83 19 c273 63 458 86 752 96 219 7 290 1 279 -25 -16 -39 -17 -190 0
-238 9 -26 15 -48 13 -50 -1 -1 -65 -7 -142 -14 -415 -33 -664 -64 -883 -111
-69 -15 -102 -26 -102 -35 0 -8 1 -14 3 -14 1 0 52 11 112 25 213 48 629 98
921 111 124 5 152 4 169 -9 16 -13 18 -20 10 -44 l-10 -28 -105 -2 c-299 -6
-635 -43 -917 -100 l-183 -37 0 -48 c0 -43 2 -48 23 -48 31 0 348 26 607 49
118 11 251 23 295 26 44 3 93 9 109 12 27 5 28 4 21 -28 -4 -19 -8 -35 -9 -36
-1 -1 -168 -9 -372 -18 -203 -8 -438 -20 -521 -26 -138 -11 -153 -14 -153 -30
0 -22 -8 -22 140 -9 94 8 870 50 924 50 13 0 14 -5 6 -26 -6 -14 -10 -38 -10
-53 l0 -29 -97 -7 c-182 -14 -199 -23 -45 -24 113 -1 147 -4 158 -16 9 -8 24
-15 35 -15 10 0 19 -4 19 -8 0 -5 -46 -12 -102 -15 -160 -10 -582 -47 -593
-52 -5 -3 66 -3 158 0 97 3 166 2 163 -3 -3 -5 -70 -15 -148 -22 -230 -20
-238 -29 -20 -23 142 4 202 3 202 -5 0 -6 -8 -13 -17 -16 -24 -7 -239 -24
-458 -36 -291 -16 -315 -20 -315 -41 0 -16 8 -19 53 -19 28 0 106 7 172 15
153 19 153 18 70 -9 -38 -12 -103 -37 -143 -54 -40 -17 -91 -36 -112 -42 -32
-9 -40 -15 -40 -34 l0 -24 53 14 c116 31 419 71 672 88 l90 7 -32 -20 c-35
-22 -49 -56 -39 -95 6 -24 4 -24 -67 -30 -225 -17 -441 -38 -551 -52 -110 -15
-126 -19 -126 -36 0 -22 -1 -22 268 -4 323 23 432 28 432 22 0 -3 -10 -24 -22
-47 -19 -38 -20 -46 -10 -102 7 -34 25 -83 42 -110 17 -27 28 -52 26 -55 -3
-3 -77 -9 -163 -13 -150 -8 -439 -33 -530 -45 -29 -4 -43 -11 -43 -22 0 -12
12 -14 73 -9 195 17 638 30 648 20 6 -6 8 -24 4 -41 -6 -29 -9 -30 -83 -41
-42 -6 -158 -17 -257 -26 -99 -8 -192 -17 -207 -20 -26 -4 -28 -1 -34 35 l-7
40 -68 0 -69 0 0 -100 c0 -62 4 -100 10 -100 6 0 117 9 248 20 397 33 487 38
496 29 5 -5 7 -11 4 -15 -4 -3 -125 -17 -270 -30 l-263 -24 278 5 c268 5 280
4 304 -15 14 -11 32 -20 39 -20 8 0 14 -4 14 -10 0 -5 -3 -10 -7 -10 -27 0
-813 -71 -830 -75 -13 -3 -23 -12 -23 -20 0 -18 -17 -19 175 5 158 20 751 73
955 86 l105 7 1 -74 c1 -76 25 -151 61 -191 15 -17 15 -18 -8 -18 -41 0 -319
-28 -644 -64 -171 -19 -385 -43 -477 -53 l-168 -17 0 -78 0 -78 78 0 c42 0 93
4 112 10 98 28 900 132 1034 134 l90 1 9 -33 c6 -18 8 -35 5 -37 -3 -3 -56
-10 -119 -16 -122 -10 -417 -47 -434 -54 -5 -2 129 -4 300 -4 207 0 305 3 295
9 -13 9 -13 11 0 20 25 16 52 11 57 -10 3 -11 14 -20 24 -20 16 0 19 8 19 59
l0 59 38 6 c161 25 366 42 647 56 362 17 454 16 433 -5 -2 -3 -153 -19 -334
-35 -348 -32 -428 -42 -537 -66 -108 -25 -71 -28 70 -5 187 29 281 39 547 56
154 10 242 13 249 6 12 -12 -12 -15 -318 -42 -264 -23 -425 -40 -615 -67 -113
-15 -120 -17 -70 -21 30 -1 109 2 175 8 216 19 452 24 457 9 4 -10 55 -13 241
-13 130 0 238 4 240 9 2 5 13 3 24 -5 12 -7 25 -10 28 -7 4 3 1 43 -6 88 -17
116 -6 449 20 615 11 72 21 136 21 143 0 9 13 11 53 6 28 -4 55 -10 60 -13 4
-4 3 -39 -2 -77 -30 -213 -54 -764 -33 -764 5 0 12 105 15 233 7 231 16 357
38 515 11 81 12 83 38 80 23 -3 26 -7 25 -43 -1 -22 -14 -116 -29 -210 -18
-115 -29 -227 -32 -346 -6 -175 -2 -229 17 -229 6 0 10 64 10 164 0 91 7 218
15 283 19 144 54 366 59 371 5 5 176 -25 183 -32 3 -3 -16 -46 -41 -96 -84
-162 -116 -350 -99 -580 6 -84 11 -105 24 -108 14 -3 16 18 16 180 -1 152 3
199 21 276 23 101 78 226 111 256 31 29 34 15 5 -28 -83 -121 -106 -393 -54
-633 l12 -53 964 0 964 0 0 91 0 92 -40 -7 c-40 -6 -40 -6 -33 21 14 57 7 127
-20 187 -15 32 -27 60 -27 61 0 2 27 6 60 10 41 5 60 11 60 21 0 9 -11 14 -29
14 -29 0 -29 0 -19 37 6 21 8 59 6 85 -4 42 -3 47 16 50 20 3 21 10 24 111 l3
107 -138 0 c-76 0 -144 4 -151 9 -15 9 103 21 213 21 l72 0 2 179 1 179 -64
-5 c-58 -5 -65 -4 -76 16 -6 12 -9 35 -5 50 5 23 13 30 43 35 20 3 52 6 70 6
25 0 32 4 32 19 0 17 -5 19 -37 14 -85 -12 -113 -23 -128 -53 -8 -16 -15 -38
-15 -50 0 -16 -6 -20 -35 -20 -19 0 -81 -9 -137 -20 -118 -23 -118 -23 -118
-12 0 5 32 15 70 22 39 7 70 17 70 21 0 8 -26 5 -122 -10 -26 -5 -50 -6 -53
-3 -10 10 -5 58 7 70 6 6 56 21 110 33 81 19 98 25 98 41 0 16 -5 18 -32 13
-136 -22 -211 -27 -503 -31 -390 -5 -507 -16 -291 -27 77 -4 187 -7 246 -7 59
0 155 -3 213 -7 l107 -6 0 -37 c0 -23 8 -48 21 -64 l20 -26 -38 0 c-21 0 -114
9 -208 20 -334 38 -492 44 -833 31 -172 -7 -316 -11 -318 -8 -3 2 0 16 6 31
13 35 13 102 0 127 -10 19 -4 19 267 19 190 0 354 6 518 20 132 11 322 23 423
27 180 6 183 7 177 27 -21 62 -28 147 -16 186 21 71 45 88 146 104 50 7 93 12
98 9 15 -9 6 -63 -15 -87 -19 -21 -37 -27 -107 -36 -46 -5 -86 -12 -89 -15 -3
-3 34 -5 81 -5 69 0 87 -3 87 -14 0 -8 -13 -17 -29 -21 -16 -3 -35 -12 -41
-20 -10 -12 -6 -12 24 -4 44 12 52 8 60 -32 l6 -32 73 6 c39 4 109 9 155 13
60 5 82 10 82 20 0 11 -14 13 -72 7 -40 -4 -95 -8 -123 -8 l-50 0 4 35 c1 19
8 38 15 42 6 4 45 8 87 8 98 0 139 8 139 28 0 12 -9 14 -46 9 -37 -4 -44 -2
-40 10 4 8 9 26 12 39 4 16 16 27 38 32 23 6 32 15 34 34 l3 26 -64 -5 c-75
-6 -110 7 -105 40 3 22 17 27 121 42 32 4 47 11 47 21 0 12 -7 14 -27 10 -56
-11 -148 -18 -141 -11 3 3 42 12 85 19 l78 12 3 111 3 111 -73 12 c-139 23
-149 30 -35 25 102 -5 107 -4 107 15 0 19 -7 20 -175 20 l-174 0 -7 36 c-9 50
0 195 15 221 10 21 19 23 81 23 44 0 70 -4 70 -11 0 -11 16 -10 148 8 l42 5 0
45 c0 38 -3 44 -16 39 -9 -4 -63 -9 -120 -13 l-104 -6 0 45 c0 33 5 48 16 52
9 3 63 6 120 6 98 0 104 1 104 21 0 20 -3 20 -157 13 -153 -6 -159 -6 -186 16
-39 31 -68 94 -74 160 -7 69 9 120 49 166 38 43 91 58 180 49 37 -4 95 -4 128
0 l60 7 0 63 0 63 -66 -14 c-36 -8 -69 -12 -72 -10 -12 7 -1 107 12 111 6 2
37 6 69 10 42 5 57 11 57 22 0 12 -7 14 -35 9 -31 -6 -35 -4 -35 14 0 16 6 20
35 20 19 0 35 5 35 10 0 6 -14 10 -30 10 l-31 0 3 63 c3 59 4 62 31 65 21 3
27 9 27 28 0 20 -5 24 -27 24 -37 0 -73 10 -73 21 0 4 21 9 48 11 l47 3 3 43
c3 38 1 43 -15 38 -10 -2 -43 -8 -74 -11 l-56 -7 5 30 c4 28 8 30 73 41 66 12
69 14 69 41 0 28 -2 28 -37 23 -21 -3 -47 -9 -58 -13 -17 -6 -21 -1 -31 34 -6
23 -14 48 -18 57 -6 14 1 18 41 23 97 14 103 16 103 42 0 19 -4 24 -17 20 -10
-3 -55 -10 -101 -16 -46 -6 -90 -14 -98 -17 -11 -4 -14 6 -14 45 l0 50 78 7
c128 10 152 15 152 32 0 14 -18 15 -144 10 l-144 -6 -13 31 c-9 23 -9 32 0 37
6 4 71 15 145 25 73 10 140 22 147 27 20 13 8 12 -175 -11 -88 -11 -177 -20
-199 -20 l-39 0 7 43 c4 23 10 45 14 49 3 3 85 14 181 23 222 20 220 20 220
56 l0 29 -125 0 -126 0 30 38 c33 40 61 110 61 150 0 15 -15 41 -39 67 -73 80
-78 165 -14 236 49 55 81 69 153 69 l60 0 0 61 0 61 -462 -5 c-469 -5 -559
-10 -1078 -62 -257 -25 -263 -25 -258 20 3 19 15 21 208 31 l205 11 -267 1
-268 2 0 -24 c0 -48 49 -215 84 -283 l35 -71 -72 -12 c-121 -20 -110 -26 -129
70 -10 47 -21 138 -24 203 -6 105 -9 117 -26 117 -12 0 -18 -7 -18 -22 0 -50
22 -208 40 -297 11 -52 17 -98 13 -102 -5 -4 -21 -9 -37 -11 -29 -3 -31 0 -62
79 -37 93 -59 187 -69 286 -7 63 -9 67 -33 67 l-25 0 7 -77 c5 -68 24 -168 42
-225 5 -16 -4 -18 -90 -18 l-94 0 -16 68 c-8 37 -22 109 -32 160 l-17 92 -481
0 c-401 -1 -486 -3 -511 -16 -29 -14 -27 -14 35 -9 36 3 164 8 284 12 l219 6
-6 -24 c-4 -13 -7 -27 -7 -31 0 -5 -30 -8 -67 -9 -38 0 -90 -4 -118 -9 -41 -6
-28 -8 68 -9 l117 -1 0 -34 c0 -18 3 -47 6 -63 l6 -30 -94 -7 c-458 -30 -609
-38 -623 -32 -21 8 -65 103 -65 141 1 39 19 72 56 96 l29 19 -56 0 -56 0 -6
-92 c-4 -51 -9 -185 -12 -298 -7 -222 -10 -250 -27 -250 -8 0 -9 86 -3 320 l7
320 -24 0 -23 0 3 -162z m3622 87 c0 -8 -6 -15 -14 -15 -32 0 -654 -53 -1045
-89 -320 -30 -430 -36 -448 -28 -32 14 -24 31 18 35 19 1 214 21 434 42 424
42 757 67 943 69 93 1 112 -1 112 -14z m-55 -54 c-6 -5 -73 -14 -150 -20 -77
-6 -383 -34 -679 -62 -442 -42 -540 -48 -547 -37 -13 20 -56 16 1156 121 88 8
229 7 220 -2z m-53 -73 c-25 -48 -22 -133 5 -185 l23 -43 -23 0 c-53 0 -443
-33 -823 -70 -226 -22 -421 -40 -433 -40 -20 0 -21 5 -21 83 0 45 -4 98 -10
116 -5 19 -7 37 -5 40 11 10 1140 128 1252 130 l51 1 -16 -32z m-4022 -18 c17
-10 17 -44 6 -381 -5 -125 -11 -232 -16 -238 -5 -8 -19 -10 -44 -6 l-36 7 0
314 0 314 38 0 c20 0 44 -4 52 -10z m1693 -47 c-6 -26 -25 -48 -50 -61 -15 -8
-114 -12 -320 -13 -164 -1 -309 -5 -323 -10 -22 -8 -21 -8 7 -4 31 4 310 -6
559 -21 l112 -7 5 -116 c3 -64 9 -127 13 -140 l7 -24 -159 6 c-87 4 -315 10
-506 13 l-347 7 -11 51 c-7 28 -14 99 -17 157 l-6 106 59 6 c104 11 836 62
946 66 30 1 35 -2 31 -16z m949 2 c0 -11 -85 -43 -116 -44 -28 -1 -13 10 47
36 54 23 68 25 69 8z m48 -54 c0 -10 -7 -13 -80 -31 -25 -6 -54 -14 -65 -17
-15 -4 -17 -2 -9 6 11 12 115 48 142 50 6 1 12 -3 12 -8z m-537 -71 c5 -4 7
-20 5 -36 -2 -23 -8 -29 -25 -28 -13 0 -104 1 -203 2 l-180 2 0 41 0 41 198
-7 c108 -4 201 -11 205 -15z m557 5 c0 -15 -14 -20 -93 -30 -27 -4 -96 -20
-153 -36 -110 -31 -154 -37 -122 -18 26 15 318 96 356 98 6 1 12 -6 12 -14z
m-12 -82 c2 -9 -11 -13 -45 -13 -53 0 -176 -34 -257 -70 l-49 -22 6 -50 c4
-28 8 -53 11 -55 3 -3 21 0 41 7 l37 12 -7 49 c-8 58 9 68 20 12 10 -53 11
-54 56 -38 54 19 144 31 136 18 -4 -6 -30 -13 -59 -17 -29 -4 -92 -20 -139
-37 -48 -16 -93 -29 -100 -29 -11 0 -14 17 -14 72 l0 72 45 17 c25 10 72 28
105 41 68 25 160 48 189 45 11 -1 21 -8 24 -14z m1367 7 c3 -5 4 -10 1 -10
-16 0 -560 -54 -761 -75 -537 -57 -605 -61 -583 -40 10 11 125 24 528 64 377
37 607 57 740 64 30 2 58 4 62 5 4 1 10 -2 13 -8z m-2064 -16 l104 -7 1 -61
c0 -44 8 -76 26 -114 l25 -52 -31 4 c-17 3 -80 8 -141 11 -179 9 -192 12 -204
48 -19 52 -16 57 41 57 62 0 56 12 -10 20 -39 4 -48 9 -50 28 -3 20 1 22 40
23 33 0 38 2 23 9 -11 5 -32 9 -47 9 -18 1 -28 6 -28 16 0 17 72 20 251 9z
m689 -42 c0 -9 -180 -46 -187 -38 -3 2 5 10 17 16 41 22 170 39 170 22z m1358
-32 c6 -52 -11 -59 -188 -80 -91 -11 -277 -31 -413 -45 -389 -39 -692 -89
-1091 -181 -150 -34 -171 -34 -164 2 2 14 49 29 238 76 456 113 854 184 1240
222 140 14 271 27 290 29 69 8 85 4 88 -23z m-1378 -19 c0 -5 -19 -12 -42 -16
-24 -3 -56 -8 -73 -11 -26 -4 -27 -3 -12 7 15 9 48 17 120 28 4 0 7 -3 7 -8z
m390 -37 c-8 -2 -94 -17 -190 -34 -96 -16 -249 -47 -340 -69 -91 -21 -167 -37
-170 -34 -23 22 298 92 625 136 38 5 95 6 75 1z m-2635 -52 l130 -17 9 -53 c5
-29 6 -55 3 -58 -3 -4 -86 10 -184 29 -98 20 -200 39 -228 42 -82 11 -85 13
-85 52 l0 36 113 -8 c61 -4 171 -14 242 -23z m1370 -67 c127 -8 269 -15 317
-15 48 0 89 -4 92 -8 3 -5 -7 -23 -22 -41 l-27 -33 -80 11 c-293 39 -1059 59
-1240 33 -49 -7 -100 -16 -112 -19 -21 -5 -23 -2 -23 35 l0 41 53 5 c112 13
163 14 482 10 182 -2 434 -10 560 -19z m1803 -1 c66 -8 42 -20 -55 -28 -332
-26 -926 -150 -1222 -254 l-113 -41 7 47 c4 26 9 50 11 53 2 4 28 12 56 19 29
6 136 34 238 61 221 58 375 89 610 123 233 34 320 38 468 20z m-3294 -51 c190
-39 214 -46 222 -68 8 -19 -1 -54 -18 -78 -13 -18 -17 -18 -118 1 -58 11 -156
26 -217 33 l-113 12 0 74 0 74 38 -7 c20 -3 113 -22 206 -41z m1176 -24 c295
-18 525 -54 537 -85 7 -18 -28 -164 -40 -164 -4 0 -28 12 -52 26 -41 24 -43
27 -34 52 6 14 15 32 21 40 37 44 -100 48 -382 8 -102 -14 -328 -46 -502 -71
-175 -25 -319 -45 -320 -45 -2 0 -2 51 -2 113 l1 112 49 8 c147 23 405 25 724
6z m2114 -67 c13 -21 -33 -49 -106 -66 -43 -10 -80 -21 -83 -26 -3 -4 12 -4
33 2 20 5 58 12 83 15 l46 5 5 -54 c3 -34 13 -66 26 -85 l21 -30 -87 -12 c-48
-6 -343 -47 -657 -91 -313 -44 -585 -82 -603 -84 -27 -4 -32 -2 -28 12 2 9 7
31 11 48 l6 31 102 10 102 10 -101 1 c-107 2 -114 5 -114 52 0 15 19 25 85 46
46 16 83 30 81 31 -3 4 -118 -20 -158 -33 -10 -3 -18 -1 -18 4 0 19 185 53
730 137 569 87 614 92 624 77z m-3389 -83 c117 -14 164 -28 95 -28 -87 0 -243
24 -248 38 -3 10 3 12 24 7 16 -3 74 -11 129 -17z m85 -99 c48 -24 64 -46 28
-37 -63 16 -221 28 -231 18 -8 -8 -4 -11 14 -11 13 0 63 -7 111 -16 l86 -16 0
-50 1 -50 -32 6 c-69 15 -164 18 -183 8 -16 -10 -14 -11 16 -12 61 0 182 -28
199 -45 15 -15 12 -16 -34 -11 -27 3 -98 8 -157 12 l-108 6 0 63 c0 65 12 142
29 186 l10 27 106 -29 c58 -16 124 -38 145 -49z m1564 52 c3 -5 8 -27 12 -50
l6 -41 -248 6 c-283 7 -380 -1 -698 -53 -220 -36 -236 -36 -236 10 0 11 4 26
8 32 6 10 469 72 697 93 122 11 453 13 459 3z m1808 -167 c6 -14 9 -28 6 -31
-14 -13 -695 -104 -968 -129 -96 -9 -242 -27 -325 -41 -182 -29 -218 -31 -213
-7 3 14 32 21 180 40 97 12 380 56 630 98 442 73 564 91 641 94 31 1 39 -3 49
-24z m-1817 3 c2 -2 1 -23 -2 -48 l-5 -45 -147 3 c-215 5 -667 -30 -756 -58
-26 -8 -24 -9 15 -5 52 6 545 41 702 50 l107 6 -16 -46 c-11 -33 -14 -70 -11
-125 l5 -79 -61 -5 c-34 -3 -128 -8 -211 -11 -188 -7 -500 -32 -625 -50 -83
-12 -221 -48 -271 -69 -15 -7 -15 -2 -2 46 8 30 13 87 11 132 l-2 79 64 30
c205 92 354 117 750 126 239 6 263 8 187 15 -48 5 -199 6 -335 3 -321 -6 -431
-27 -631 -118 -109 -51 -118 -50 -123 4 -6 59 -3 64 56 86 165 62 521 92 1005
86 161 -2 295 -5 296 -7z m2215 -128 c0 -53 -16 -60 -137 -61 -54 -1 -136 -4
-183 -8 -76 -7 -68 -8 81 -9 l166 -2 -11 -41 c-9 -35 -8 -46 11 -80 l21 -39
-276 0 c-318 0 -1171 18 -1219 26 -33 5 -33 6 -33 59 0 46 3 55 18 55 51 0
372 21 467 31 61 5 252 30 425 54 377 53 360 51 533 53 l137 2 0 -40z m-4480
-65 c-124 -19 -251 -27 -220 -15 35 14 152 27 235 27 l70 0 -85 -12z m2830
-89 c0 -36 -4 -56 -14 -59 -7 -3 -54 -8 -104 -12 l-92 -8 -10 27 c-17 46 -13
75 13 81 30 7 146 22 180 24 26 1 27 0 27 -53z m-113 -237 c13 -74 22 -147 20
-164 -2 -20 -5 -10 -11 30 -4 33 -16 89 -26 125 -28 99 -35 153 -19 148 8 -3
22 -53 36 -139z m1263 111 c25 -6 -4 -8 -96 -9 -165 -1 -300 -14 -479 -47
-290 -52 -434 -97 -454 -140 -11 -25 -16 -344 -6 -344 3 0 18 9 33 20 36 26
98 37 342 56 230 18 699 30 754 20 35 -7 36 -8 36 -51 l0 -45 -217 0 c-213 0
-812 -26 -822 -35 -2 -3 151 -5 341 -5 336 0 468 -6 468 -20 0 -12 -957 -23
-979 -10 -34 18 -41 74 -41 332 0 207 2 249 15 262 15 15 54 23 150 30 88 7
919 -5 955 -14z m-1710 -3 c0 -9 -36 -16 -122 -25 -199 -19 -329 -35 -324 -39
2 -3 100 3 216 12 117 9 215 14 217 11 3 -3 -5 -7 -18 -10 -28 -6 -401 -38
-704 -62 -311 -23 -332 -29 -430 -115 -62 -54 -93 -61 -125 -29 -27 27 -26 75
4 105 77 77 261 117 666 145 85 6 173 12 195 14 22 1 127 3 233 4 150 2 192
-1 192 -11z m2188 7 c12 -4 22 -13 22 -20 0 -11 -29 -14 -152 -14 -84 0 -163
-3 -175 -6 -19 -5 -23 -2 -23 14 0 19 7 21 63 25 116 6 242 7 265 1z m-1623
-44 c-12 -23 -15 -71 -17 -227 l-1 -198 -8 190 c-8 198 -7 219 19 248 22 25
25 21 7 -13z m1275 11 c0 -13 -12 -21 -42 -29 -38 -10 -34 -11 32 -5 41 4 142
7 225 7 136 1 150 -1 153 -17 8 -42 -12 -47 -179 -47 l-159 0 0 28 c0 19 -3
23 -9 13 -6 -9 -47 -16 -132 -22 -228 -16 -464 -49 -498 -69 -12 -7 -8 -8 14
-5 69 12 540 64 544 60 2 -3 -2 -12 -10 -21 -19 -24 -17 -167 4 -216 l16 -38
-127 0 c-229 0 -846 -43 -953 -66 l-26 -6 4 99 c5 110 17 159 41 172 56 29
507 117 777 150 288 36 325 38 325 12z m-1792 -113 c4 -45 24 -39 -248 -73
-113 -14 -337 -44 -499 -65 -358 -49 -358 -49 -372 -13 -16 44 2 70 61 87 159
47 716 106 970 102 l85 -1 3 -37z m212 -115 c0 -5 -7 -26 -15 -48 -18 -52 -19
-146 -1 -190 l15 -35 -42 0 c-23 0 -177 -7 -342 -15 -165 -8 -447 -15 -626
-15 l-326 0 -11 25 c-24 53 -8 119 32 135 14 5 146 21 293 35 289 27 856 91
938 104 68 12 85 12 85 4z m93 -21 c-20 -95 -24 -158 -13 -205 7 -29 17 -60
22 -69 7 -15 4 -18 -16 -18 -21 0 -31 10 -53 53 -54 105 -25 265 47 253 8 -1
14 -7 13 -14z m-47 -316 l21 -32 -241 -12 c-466 -24 -791 -53 -1118 -98 -131
-19 -148 -14 -148 37 0 16 2 29 5 29 3 0 68 9 145 20 177 25 478 56 685 70 88
5 178 12 200 13 22 2 128 4 235 5 l195 1 21 -33z m124 -85 c0 -5 -15 -12 -32
-16 -18 -4 -51 -17 -73 -29 l-40 -23 -500 5 c-515 5 -724 -3 -867 -33 -79 -17
-98 -15 -98 12 0 14 2 15 9 4 8 -12 26 -12 128 2 219 31 613 67 863 80 146 8
610 6 610 -2z m-2897 -68 c-7 -2 -19 -2 -25 0 -7 3 -2 5 12 5 14 0 19 -2 13
-5z m3797 -8 c190 -3 396 -8 458 -11 l113 -6 -39 -42 c-53 -58 -76 -120 -70
-193 3 -32 8 -65 12 -74 6 -15 -27 -17 -344 -24 -340 -7 -1166 1 -1204 12 -17
5 -18 12 -13 74 10 114 75 219 162 261 37 18 57 19 310 14 149 -3 425 -8 615
-11z m-1638 -63 c16 -16 -294 -28 -332 -12 -68 28 -44 33 139 28 103 -3 187
-10 193 -16z m508 -56 c0 -16 -53 -26 -130 -24 -54 1 -54 1 -15 8 31 5 15 8
-65 10 l-105 4 75 6 c148 13 240 11 240 -4z m-1303 -46 c2 -19 11 -54 20 -78
13 -36 20 -42 37 -38 111 28 742 95 970 103 l178 6 -8 -24 c-5 -13 -9 -64 -9
-114 1 -76 5 -99 28 -149 15 -32 27 -60 27 -62 0 -2 -87 -4 -192 -4 -106 0
-247 -5 -313 -11 -114 -9 -784 -82 -871 -94 l-42 -6 -4 60 c-3 50 -12 72 -53
138 -99 159 -63 267 99 299 33 7 76 12 95 11 32 -2 35 -5 38 -37z m-1277 12
c0 -5 -42 -19 -92 -32 -51 -13 -110 -29 -130 -36 -21 -7 -38 -9 -38 -4 0 10
102 45 190 64 36 8 66 14 68 15 1 1 2 -3 2 -7z m1807 1 c-9 -8 -418 -55 -425
-48 -2 2 -2 11 1 19 4 10 29 16 84 21 43 3 85 8 93 9 30 7 253 6 247 -1z
m-834 -45 c-57 -63 -74 -161 -39 -226 23 -45 16 -49 -13 -7 -29 42 -37 101
-21 150 13 39 65 105 83 105 6 0 1 -10 -10 -22z m3491 -50 c-17 -46 -24 -194
-11 -240 6 -21 4 -28 -7 -28 -22 0 -46 29 -46 56 0 18 -10 31 -35 45 -43 26
-49 44 -36 114 17 89 22 95 91 95 l59 0 -15 -42z m-654 -144 c313 -5 457 -10
462 -18 4 -6 8 -19 8 -28 0 -17 -17 -18 -207 -19 -118 -1 -195 -5 -178 -9 17
-4 114 -8 218 -9 163 -1 187 -3 187 -17 0 -17 -48 -17 -870 12 -447 16 -566
14 -658 -12 -49 -14 -56 -14 -78 1 -26 17 -64 71 -64 92 0 25 -70 24 1180 7z
m210 -155 c256 -6 469 -14 473 -18 5 -5 7 -28 5 -52 l-3 -44 -70 1 c-38 0
-317 7 -620 14 -302 6 -610 10 -682 7 l-133 -5 0 27 c0 14 -7 37 -16 49 -8 12
-13 26 -10 30 5 9 425 6 1056 -9z m-1370 -38 c-5 -11 -10 -35 -10 -55 l0 -35
-317 2 c-301 1 -656 -17 -838 -43 -71 -11 27 -7 345 11 208 12 861 6 915 -9
17 -5 31 -15 33 -23 2 -12 -11 -13 -80 -7 -127 10 -819 9 -1033 -2 -104 -5
-262 -11 -350 -12 l-160 -3 -3 24 c-2 12 -1 34 2 47 8 30 36 37 231 63 310 41
589 58 983 60 287 1 292 1 282 -18z m-1815 -120 c-16 -15 -291 -43 -625 -65
-124 -8 -70 9 91 29 312 38 553 55 534 36z m3590 -30 c25 -5 31 -11 33 -40 2
-18 -1 -38 -6 -43 -6 -6 -73 -5 -178 3 -138 10 -225 10 -474 -2 -168 -8 -424
-14 -569 -14 l-264 0 -10 28 c-5 15 -6 39 -3 52 l6 25 718 -1 c394 -1 731 -4
747 -8z m-1564 -87 c14 -8 11 -80 -3 -90 -7 -5 -146 -7 -308 -4 l-295 5 160
18 c88 10 176 22 195 26 19 4 -158 6 -395 5 -399 -3 -423 -2 -330 11 55 7 192
18 305 24 113 7 234 13 270 15 84 5 390 -3 401 -10z m-1473 -56 c2 -25 8 -51
15 -56 8 -6 116 -6 297 0 157 5 439 6 628 2 l342 -7 0 -69 c0 -61 -2 -69 -17
-64 -173 53 -298 59 -1018 52 -363 -4 -616 -3 -624 3 -15 10 -29 147 -18 176
6 13 31 15 199 13 l193 -3 3 -47z m2836 27 c65 -7 119 -15 121 -17 1 -2 0 -23
-4 -48 l-6 -45 -45 2 c-25 1 -162 10 -305 19 -143 9 -442 19 -665 23 -395 6
-405 6 -408 26 -3 20 4 20 340 22 199 1 410 8 503 16 210 19 324 19 469 2z
m-379 -129 c105 -9 223 -17 264 -18 l75 -3 1 -75 c1 -85 25 -144 72 -178 l27
-20 -164 -6 c-453 -17 -732 -26 -841 -26 l-120 0 -20 35 c-25 42 -46 55 -91
55 -18 0 -39 4 -46 9 -12 7 316 19 612 22 73 1 101 4 81 9 -16 4 -182 8 -368
9 l-338 1 16 30 c20 38 19 113 -1 152 l-16 31 334 -6 c183 -3 419 -13 523 -21z
m-2616 -133 l-3 -68 115 -6 c63 -3 13 -4 -111 -2 -124 3 -229 8 -234 13 -5 5
-5 29 -2 54 7 45 7 45 54 51 26 4 67 10 92 15 95 17 92 19 89 -57z m1235 61
c9 -3 16 -12 16 -20 0 -11 -17 -14 -69 -14 -39 0 -73 -4 -76 -10 -4 -6 23 -10
74 -10 80 0 81 0 81 -25 0 -25 -1 -25 -97 -26 -83 -1 -91 -3 -53 -10 25 -4 66
-8 91 -8 48 -1 59 -11 59 -52 0 -18 -10 -19 -212 -19 -208 0 -756 25 -766 34
-2 3 -2 12 1 19 4 11 36 17 114 23 l108 9 -110 5 c-105 5 -110 6 -113 28 -3
21 0 22 80 23 46 1 117 4 158 8 69 6 62 7 -85 14 -118 6 -164 12 -175 22 -12
13 47 15 472 15 268 0 493 -3 502 -6z m83 -30 c-3 -3 -12 -4 -19 -1 -8 3 -5 6
6 6 11 1 17 -2 13 -5z m-14 -60 c-4 -12 -33 -21 -33 -10 0 17 14 34 25 30 8
-3 11 -12 8 -20z m-1933 -62 c0 -10 -289 -36 -298 -28 -10 11 3 15 78 24 98
12 220 14 220 4z m364 -97 c-22 -54 -18 -141 11 -202 26 -57 19 -70 -13 -25
-44 61 -52 165 -17 232 22 42 37 38 19 -5z m1367 28 l364 -8 -210 -6 c-115 -3
-481 -7 -811 -8 -547 -1 -603 -3 -615 -18 -18 -21 -18 -159 0 -191 15 -27 8
-40 -13 -23 -36 30 -48 207 -17 245 12 14 64 16 476 16 254 0 626 -3 826 -7z
m376 -47 c-2 -7 -112 -13 -333 -17 -181 -4 -345 -9 -364 -13 -19 -3 -147 -15
-285 -26 -137 -12 -252 -24 -255 -27 -3 -3 85 -3 195 0 184 5 348 0 733 -19
l142 -7 -6 -66 c-4 -36 -8 -68 -10 -69 -2 -3 -115 2 -619 28 -99 5 -320 10
-492 10 -360 0 -331 -9 -341 105 -8 103 -6 104 161 107 420 8 1477 4 1474 -6z
m226 -3 c-7 -2 -19 -2 -25 0 -7 3 -2 5 12 5 14 0 19 -2 13 -5z m-123 -135 c0
-28 9 -42 35 -53 14 -6 -12 -11 -85 -16 -58 -5 -129 -12 -157 -17 -48 -8 -53
-7 -53 9 0 10 17 36 38 59 l39 40 91 0 c89 0 92 -1 92 -22z m970 -104 c102 -8
259 -21 350 -29 91 -8 197 -15 235 -15 94 0 117 -7 113 -34 -3 -24 20 -23
-268 -6 -91 5 -331 10 -535 10 -379 1 -746 13 -778 25 -20 8 -42 43 -33 53 4
3 42 0 85 -7 66 -11 98 -11 207 3 221 27 276 27 624 0z m-1460 -27 l225 -12 5
-45 c3 -25 9 -51 14 -59 8 -12 -26 -13 -220 -7 -126 4 -355 14 -509 21 -274
14 -283 15 -440 56 -88 23 -191 48 -230 55 -62 12 -10 13 430 8 275 -3 601
-11 725 -17z m-1445 -57 c176 -10 393 -22 483 -26 129 -6 162 -10 162 -21 0
-11 -12 -13 -57 -9 -170 16 -751 46 -895 46 -99 0 -120 5 -101 23 10 10 57 9
408 -13z m2420 -40 c24 -10 -101 -1 -160 11 -26 5 -9 6 50 3 49 -4 98 -10 110
-14z m1017 3 c46 -5 47 -6 33 -26 -8 -12 -15 -31 -15 -44 0 -20 -4 -22 -47
-18 -27 3 -111 9 -188 15 -77 5 -223 18 -325 27 l-185 17 59 14 c128 28 497
37 668 15z m-3385 -18 c103 -8 274 -24 378 -36 208 -22 215 -25 215 -86 0 -26
-5 -36 -22 -43 -23 -9 -23 -9 2 -10 14 0 115 9 225 21 217 24 355 21 355 -7 0
-11 -26 -14 -137 -15 l-138 -2 123 -8 c68 -4 125 -9 127 -11 1 -2 5 -38 7 -81
l5 -77 -326 5 c-179 4 -465 10 -636 16 -170 5 -367 9 -438 9 l-127 0 25 49
c13 27 27 68 31 90 l7 41 106 1 c118 2 97 16 -26 18 -65 1 -95 12 -79 29 4 3
48 8 99 11 82 4 87 6 47 12 -25 4 -68 8 -97 8 -55 1 -51 -2 -69 64 -5 15 3 17
75 17 43 0 164 -7 268 -15z m2493 -25 c113 -11 324 -29 470 -40 488 -38 442
-30 429 -72 -13 -46 -11 -115 5 -176 7 -29 10 -52 7 -52 -3 0 -168 18 -366 40
-198 22 -483 54 -633 69 -151 16 -276 32 -280 35 -3 3 4 16 15 29 11 12 26 33
33 46 12 23 15 23 99 18 98 -7 82 6 -21 17 -49 6 -68 12 -68 22 0 11 19 14 91
14 57 0 88 4 84 10 -3 6 -23 10 -44 10 -21 0 -59 3 -84 6 -38 5 -46 10 -50 31
-4 24 -4 25 52 19 31 -3 148 -15 261 -26z m-1007 -7 c150 -4 216 -10 214 -17
-2 -7 -103 -13 -308 -17 -239 -5 -348 -12 -509 -33 -279 -35 -260 -37 -260 24
l0 50 323 0 c177 0 420 -3 540 -7z m-336 -80 c-20 -2 -52 -2 -70 0 -17 2 0 4
38 4 39 0 53 -2 32 -4z m383 -139 c0 -24 -34 -259 -46 -317 -4 -21 -9 -26 -17
-18 -14 14 -11 60 14 221 10 69 19 128 19 133 0 4 7 7 15 7 9 0 15 -10 15 -26z
m810 -23 c151 -17 439 -48 640 -70 201 -22 397 -43 435 -47 41 -4 77 -13 88
-22 15 -13 20 -14 26 -3 7 11 28 11 126 0 112 -13 117 -14 131 -41 l15 -28
-49 0 c-27 0 -97 3 -155 6 -98 6 -105 8 -97 25 15 27 13 29 -27 29 -20 0 -278
27 -572 60 -516 57 -839 90 -888 90 -17 0 -23 6 -23 21 0 18 4 20 38 15 20 -3
161 -19 312 -35z m-3035 -62 c-227 -39 -399 -50 -373 -24 6 7 377 43 438 43
31 0 10 -6 -65 -19z m1333 -41 c495 -9 612 -14 612 -25 0 -10 -29 -13 -127
-15 l-128 -1 95 -7 c52 -4 134 -8 182 -9 48 0 90 -6 93 -11 3 -6 -3 -10 -14
-10 -11 0 -23 -4 -26 -10 -13 -22 -1218 -10 -1642 16 -91 6 -92 6 -102 37 -6
16 -9 32 -7 35 12 11 174 20 306 16 80 -2 421 -9 758 -16z m1463 -43 c-58 -53
-84 -123 -79 -210 3 -45 13 -85 27 -113 l22 -44 -23 4 c-36 5 -52 51 -52 148
0 69 4 94 23 132 22 46 90 118 111 118 6 0 -7 -16 -29 -35z m214 0 c573 -75
616 -79 950 -81 176 0 353 -4 393 -9 74 -7 74 -7 67 -34 -16 -67 -17 -200 -1
-246 l16 -47 -63 6 c-63 7 -672 36 -1199 58 l-286 12 -24 50 c-30 65 -33 197
-5 240 24 36 15 45 -11 11 -43 -54 -50 -171 -16 -253 17 -41 1 -40 -30 2 -32
42 -35 168 -7 225 20 38 71 81 96 81 6 0 60 -7 120 -15z m-895 -154 c0 -5 -17
-12 -37 -15 -97 -14 -664 -60 -748 -60 -116 0 -284 17 -289 29 -6 16 75 22
484 35 378 12 466 15 538 18 28 1 52 -2 52 -7z m-36 -90 c35 -29 -2 -35 -257
-43 -138 -5 -288 -13 -332 -18 -53 -5 31 -7 248 -3 l327 6 0 -32 c0 -17 7 -48
15 -68 8 -19 15 -36 15 -37 0 0 -134 -2 -298 -3 -163 -2 -407 -10 -541 -18
-134 -8 -245 -14 -247 -12 -1 1 7 30 19 63 l21 62 60 6 c32 3 77 7 100 7 39 1
40 2 11 9 -16 4 -60 8 -97 9 -68 1 -68 1 -68 30 0 27 2 28 61 35 34 3 121 7
193 7 72 1 181 5 241 9 189 13 509 7 529 -9z m1306 -167 c383 -26 402 -33 80
-28 -162 2 -393 7 -512 11 -209 6 -218 7 -218 26 0 20 4 20 213 14 116 -4 313
-14 437 -23z m-2780 -44 c-30 -5 -95 -8 -145 -7 -90 0 -90 0 -25 7 36 4 101 7
145 7 78 0 78 0 25 -7z m2685 -35 c-269 -52 -341 -65 -367 -65 -26 0 -28 3
-28 40 l0 40 233 -1 c224 -1 230 -1 162 -14z m993 3 c7 -7 12 -19 12 -29 0
-15 -32 -17 -332 -23 -183 -4 -362 -10 -398 -15 -40 -5 43 -7 215 -3 154 2
346 1 428 -3 l147 -7 0 -32 0 -31 -673 -1 c-369 0 -720 -4 -779 -8 l-108 -7 0
30 c0 28 2 29 63 36 34 4 166 20 292 37 142 18 318 33 460 39 127 5 300 13
385 18 237 12 275 12 288 -1z m-3538 -8 c0 -5 -3 -10 -6 -10 -70 0 -866 -82
-1054 -109 -64 -9 -108 2 -53 13 56 12 353 45 588 66 192 17 400 37 513 49 6
0 12 -3 12 -9z"/>
<path d="M2168 3473 c7 -3 16 -2 19 1 4 3 -2 6 -13 5 -11 0 -14 -3 -6 -6z"/>
<path d="M2465 3103 c-156 -7 -338 -26 -420 -43 l-90 -19 70 4 c39 2 136 11
217 19 81 9 204 19 275 23 79 4 118 9 103 14 -25 7 -48 7 -155 2z"/>
<path d="M1928 3033 c7 -3 16 -2 19 1 4 3 -2 6 -13 5 -11 0 -14 -3 -6 -6z"/>
<path d="M3312 2569 c-51 -4 -95 -9 -98 -12 -2 -2 145 -7 328 -11 183 -4 351
-9 373 -11 33 -4 36 -3 17 5 -54 23 -448 42 -620 29z"/>
<path d="M2770 5108 c1 -33 50 -260 60 -275 10 -15 11 -13 7 12 -3 17 -13 85
-23 153 -12 85 -21 122 -31 122 -7 0 -13 -6 -13 -12z"/>
<path d="M5025 4953 c-62 -9 -48 -23 23 -23 57 0 72 3 72 15 0 15 -27 17 -95
8z"/>
<path d="M4 4441 c-2 -2 -4 -15 -4 -29 0 -21 3 -24 28 -18 15 3 108 9 207 12
165 6 296 -2 373 -22 38 -10 24 13 -17 30 -65 26 -206 38 -399 34 -101 -2
-186 -5 -188 -7z"/>
<path d="M4990 4227 l-105 -21 65 -9 c36 -4 89 -5 118 -2 47 6 52 9 52 31 0
28 5 28 -130 1z"/>
<path d="M0 3464 c0 -14 8 -16 46 -10 26 3 99 7 163 7 102 2 109 3 56 9 -33 4
-106 8 -162 9 -89 1 -103 -1 -103 -15z"/>
<path d="M886 2799 c-82 -4 -154 -11 -160 -14 -6 -3 41 -3 104 0 63 3 184 5
269 5 85 0 152 2 150 4 -11 10 -229 13 -363 5z"/>
<path d="M658 2773 c7 -3 16 -2 19 1 4 3 -2 6 -13 5 -11 0 -14 -3 -6 -6z"/>
<path d="M10 1770 c-13 -9 -13 -10 0 -10 8 0 22 5 30 10 13 9 13 10 0 10 -8 0
-22 -5 -30 -10z"/>
<path d="M0 1710 c0 -12 64 -12 100 0 19 6 9 8 -37 9 -36 1 -63 -3 -63 -9z"/>
</g>
</svg>